# xmcd
#
# Track frame offsets:
#	183
#	10705
#	24218
#	39900
#	51173
#	63340
#	76615
#	86163
#	100968
#	112250
#	123363
#	135495
#
# Disc length: 1951 seconds
#
# Revision: 0
# Processed by: cddbd v1.4PL0 Copyright (c) Steve Scherf et al.
# Submitted via: dBpowerAMP V4.0
#
DISCID=8c079d0c
DTITLE=Brian Coll - These Are My Mountains
DYEAR=1900
DGENRE=Country
TTITLE0=When My Blue Moon Turns To Gold Again
TTITLE1=Mail Call
TTITLE2=These Are My Mountains
TTITLE3=Fools Castle
TTITLE4=Cover Mama's Flowers
TTITLE5=Back To Birmingham
TTITLE6=Cattle Call
TTITLE7=Tears Of St. Anne
TTITLE8=Asthoreen Bawn
TTITLE9=China Doll
TTITLE10=Petal From A Faded Rose
TTITLE11=Sing Me Back Home
EXTD=
EXTT0=
EXTT1=
EXTT2=
EXTT3=
EXTT4=
EXTT5=
EXTT6=
EXTT7=
EXTT8=
EXTT9=
EXTT10=
EXTT11=
PLAYORDER=
